<svg xmlns="http://www.w3.org/2000/svg" width="800" height="800">
  <g style="stroke-width:2;stroke:#000">
    <line x1="144.8" y1="655.2" x2="144.8" y2="505.7" />
    <line x1="144.8" y1="655.2" x2="505.7" y2="655.2" />
    <line x1="144.8" y1="655.2" x2="250.5" y2="400" />
    <line x1="144.8" y1="655.2" x2="400" y2="760.9" />
    <line x1="144.8" y1="655.2" x2="39.1" y2="400" />
    <line x1="144.8" y1="655.2" x2="400" y2="549.5" />
    <line x1="144.8" y1="655.2" x2="144.8" y2="294.3" />
    <line x1="144.8" y1="655.2" x2="294.3" y2="655.2" />
    <line x1="505.7" y1="505.7" x2="144.8" y2="505.7" />
    <line x1="505.7" y1="505.7" x2="505.7" y2="655.2" />
    <line x1="505.7" y1="505.7" x2="250.5" y2="400" />
    <line x1="505.7" y1="505.7" x2="400" y2="760.9" />
    <line x1="505.7" y1="505.7" x2="400" y2="250.5" />
    <line x1="505.7" y1="505.7" x2="760.9" y2="400" />
    <line x1="505.7" y1="505.7" x2="505.7" y2="144.8" />
    <line x1="505.7" y1="505.7" x2="655.2" y2="505.7" />
    <line x1="144.8" y1="505.7" x2="250.5" y2="400" />
    <line x1="144.8" y1="505.7" x2="400" y2="760.9" />
    <line x1="144.8" y1="505.7" x2="39.1" y2="400" />
    <line x1="144.8" y1="505.7" x2="400" y2="250.5" />
    <line x1="144.8" y1="505.7" x2="144.8" y2="144.8" />
    <line x1="144.8" y1="505.7" x2="294.3" y2="505.7" />
    <line x1="505.7" y1="655.2" x2="250.5" y2="400" />
    <line x1="505.7" y1="655.2" x2="400" y2="760.9" />
    <line x1="505.7" y1="655.2" x2="400" y2="549.5" />
    <line x1="505.7" y1="655.2" x2="760.9" y2="400" />
    <line x1="505.7" y1="655.2" x2="505.7" y2="294.3" />
    <line x1="505.7" y1="655.2" x2="655.2" y2="655.2" />
    <line x1="250.5" y1="400" x2="144.8" y2="294.3" />
    <line x1="250.5" y1="400" x2="505.7" y2="144.8" />
    <line x1="250.5" y1="400" x2="144.8" y2="144.8" />
    <line x1="250.5" y1="400" x2="505.7" y2="294.3" />
    <line x1="400" y1="760.9" x2="294.3" y2="655.2" />
    <line x1="400" y1="760.9" x2="655.2" y2="505.7" />
    <line x1="400" y1="760.9" x2="294.3" y2="505.7" />
    <line x1="400" y1="760.9" x2="655.2" y2="655.2" />
    <line x1="294.3" y1="294.3" x2="294.3" y2="144.8" />
    <line x1="294.3" y1="294.3" x2="655.2" y2="294.3" />
    <line x1="294.3" y1="294.3" x2="400" y2="39.1" />
    <line x1="294.3" y1="294.3" x2="549.5" y2="400" />
    <line x1="294.3" y1="294.3" x2="39.1" y2="400" />
    <line x1="294.3" y1="294.3" x2="400" y2="549.5" />
    <line x1="294.3" y1="294.3" x2="144.8" y2="294.3" />
    <line x1="294.3" y1="294.3" x2="294.3" y2="655.2" />
    <line x1="655.2" y1="144.8" x2="294.3" y2="144.8" />
    <line x1="655.2" y1="144.8" x2="655.2" y2="294.3" />
    <line x1="655.2" y1="144.8" x2="400" y2="39.1" />
    <line x1="655.2" y1="144.8" x2="549.5" y2="400" />
    <line x1="655.2" y1="144.8" x2="400" y2="250.5" />
    <line x1="655.2" y1="144.8" x2="760.9" y2="400" />
    <line x1="655.2" y1="144.8" x2="505.7" y2="144.8" />
    <line x1="655.2" y1="144.8" x2="655.2" y2="505.7" />
    <line x1="294.3" y1="144.8" x2="400" y2="39.1" />
    <line x1="294.3" y1="144.8" x2="549.5" y2="400" />
    <line x1="294.3" y1="144.8" x2="39.1" y2="400" />
    <line x1="294.3" y1="144.8" x2="400" y2="250.5" />
    <line x1="294.3" y1="144.8" x2="144.8" y2="144.8" />
    <line x1="294.3" y1="144.8" x2="294.3" y2="505.7" />
    <line x1="655.2" y1="294.3" x2="400" y2="39.1" />
    <line x1="655.2" y1="294.3" x2="549.5" y2="400" />
    <line x1="655.2" y1="294.3" x2="400" y2="549.5" />
    <line x1="655.2" y1="294.3" x2="760.9" y2="400" />
    <line x1="655.2" y1="294.3" x2="505.7" y2="294.3" />
    <line x1="655.2" y1="294.3" x2="655.2" y2="655.2" />
    <line x1="400" y1="39.1" x2="144.8" y2="294.3" />
    <line x1="400" y1="39.1" x2="505.7" y2="144.8" />
    <line x1="400" y1="39.1" x2="144.8" y2="144.8" />
    <line x1="400" y1="39.1" x2="505.7" y2="294.3" />
    <line x1="549.5" y1="400" x2="294.3" y2="655.2" />
    <line x1="549.5" y1="400" x2="655.2" y2="505.7" />
    <line x1="549.5" y1="400" x2="294.3" y2="505.7" />
    <line x1="549.5" y1="400" x2="655.2" y2="655.2" />
    <line x1="39.1" y1="400" x2="144.8" y2="294.3" />
    <line x1="39.1" y1="400" x2="294.3" y2="655.2" />
    <line x1="39.1" y1="400" x2="144.8" y2="144.8" />
    <line x1="39.1" y1="400" x2="294.3" y2="505.7" />
    <line x1="400" y1="549.5" x2="144.8" y2="294.3" />
    <line x1="400" y1="549.5" x2="294.3" y2="655.2" />
    <line x1="400" y1="549.5" x2="505.7" y2="294.3" />
    <line x1="400" y1="549.5" x2="655.2" y2="655.2" />
    <line x1="144.8" y1="294.3" x2="144.8" y2="144.8" />
    <line x1="144.8" y1="294.3" x2="505.7" y2="294.3" />
    <line x1="294.3" y1="655.2" x2="294.3" y2="505.7" />
    <line x1="294.3" y1="655.2" x2="655.2" y2="655.2" />
    <line x1="400" y1="250.5" x2="505.7" y2="144.8" />
    <line x1="400" y1="250.5" x2="655.2" y2="505.7" />
    <line x1="400" y1="250.5" x2="144.8" y2="144.8" />
    <line x1="400" y1="250.5" x2="294.3" y2="505.7" />
    <line x1="760.9" y1="400" x2="505.7" y2="144.8" />
    <line x1="760.9" y1="400" x2="655.2" y2="505.7" />
    <line x1="760.9" y1="400" x2="505.7" y2="294.3" />
    <line x1="760.9" y1="400" x2="655.2" y2="655.2" />
    <line x1="505.7" y1="144.8" x2="144.8" y2="144.8" />
    <line x1="505.7" y1="144.8" x2="505.7" y2="294.3" />
    <line x1="655.2" y1="505.7" x2="294.3" y2="505.7" />
    <line x1="655.2" y1="505.7" x2="655.2" y2="655.2" />
  </g>
  <g style="fill:#000;stroke-width:2;stroke:#000">
    <circle cx="144.8" cy="655.2" r="8" />
    <circle cx="505.7" cy="505.7" r="8" />
    <circle cx="144.8" cy="505.7" r="8" />
    <circle cx="505.7" cy="655.2" r="8" />
    <circle cx="250.5" cy="400" r="8" />
    <circle cx="400" cy="760.9" r="8" />
    <circle cx="294.3" cy="294.3" r="8" />
    <circle cx="655.2" cy="144.8" r="8" />
    <circle cx="294.3" cy="144.8" r="8" />
    <circle cx="655.2" cy="294.3" r="8" />
    <circle cx="400" cy="39.1" r="8" />
    <circle cx="549.5" cy="400" r="8" />
    <circle cx="39.1" cy="400" r="8" />
    <circle cx="400" cy="549.5" r="8" />
    <circle cx="144.8" cy="294.3" r="8" />
    <circle cx="294.3" cy="655.2" r="8" />
    <circle cx="400" cy="250.5" r="8" />
    <circle cx="760.9" cy="400" r="8" />
    <circle cx="505.7" cy="144.8" r="8" />
    <circle cx="655.2" cy="505.7" r="8" />
    <circle cx="144.8" cy="144.8" r="8" />
    <circle cx="294.3" cy="505.7" r="8" />
    <circle cx="505.7" cy="294.3" r="8" />
    <circle cx="655.2" cy="655.2" r="8" />
  </g>
</svg>